<svg width="65" height="26" viewBox="0 0 65 26" fill="none" xmlns="http://www.w3.org/2000/svg">
<path d="M0 6.4C0 4.15979 0 3.03969 0.435974 2.18404C0.819467 1.43139 1.43139 0.819467 2.18404 0.435974C3.03969 0 4.15979 0 6.4 0H57.9611C60.2013 0 61.3214 0 62.1771 0.435974C62.9297 0.819467 63.5416 1.43139 63.9251 2.18404C64.3611 3.03969 64.3611 4.15979 64.3611 6.4V19.6C64.3611 21.8402 64.3611 22.9603 63.9251 23.816C63.5416 24.5686 62.9297 25.1805 62.1771 25.564C61.3214 26 60.2013 26 57.9611 26H6.4C4.15979 26 3.03969 26 2.18404 25.564C1.43139 25.1805 0.819467 24.5686 0.435974 23.816C0 22.9603 0 21.8402 0 19.6V6.4Z" fill="#F2F4F7"/>
<path d="M11.3252 20.513C11.0841 20.513 10.8151 20.4296 10.5183 20.2626C10.189 20.0493 10.0035 19.7733 9.96174 19.4348C9.95246 19.3652 9.94783 19.298 9.94783 19.233C9.94783 18.9687 10.022 18.6974 10.1704 18.4191C10.3235 18.1409 10.5577 17.9461 10.873 17.8348C10.9751 17.7977 11.0817 17.7791 11.193 17.7791C11.4203 17.7791 11.6638 17.858 11.9235 18.0157C12.313 18.2893 12.5078 18.6626 12.5078 19.1357C12.5078 19.3768 12.4406 19.6296 12.3061 19.8939C12.1762 20.1583 11.9536 20.3461 11.6383 20.4574C11.5409 20.4945 11.4365 20.513 11.3252 20.513ZM14.0035 20.3043C13.7716 20.3043 13.5304 20.2232 13.28 20.0609C12.9322 19.8012 12.7583 19.4603 12.7583 19.0383C12.7583 18.76 12.8371 18.4817 12.9948 18.2035C13.1571 17.9252 13.3959 17.7374 13.7113 17.64C13.7994 17.6122 13.8922 17.5983 13.9896 17.5983C14.2307 17.5983 14.4928 17.6887 14.7757 17.8696C15.1467 18.1478 15.3322 18.4864 15.3322 18.8852C15.3322 19.1728 15.2394 19.4487 15.0539 19.713C14.873 19.982 14.6203 20.1652 14.2957 20.2626C14.2029 20.2904 14.1055 20.3043 14.0035 20.3043ZM7.97217 19.8174C7.70319 19.8174 7.37855 19.7409 6.99826 19.5878L6.76174 19.4696L6.62261 19.3583C7.41101 17.8464 8.01159 16.5014 8.42435 15.3235C8.84174 14.1409 9.08058 13.2481 9.14087 12.6452C9.28928 12.4365 9.52348 12.3322 9.84348 12.3322C10.1264 12.3322 10.4139 12.3809 10.7061 12.4783C11.0029 12.5757 11.2301 12.6846 11.3878 12.8052C11.3693 12.9212 11.3461 13.0441 11.3183 13.1739C11.2951 13.3362 11.2835 13.5009 11.2835 13.6678C11.2835 14.5722 11.5293 15.2516 12.0209 15.7061C12.2945 15.9612 12.582 16.0887 12.8835 16.0887C13.1478 16.0887 13.382 15.9357 13.5861 15.6296C13.9014 15.0962 14.0916 14.2104 14.1565 12.9722L14.1843 12.5478C14.1936 12.2835 14.2075 12.091 14.2261 11.9704C14.5878 11.8545 14.9101 11.7965 15.193 11.7965C15.9675 11.7965 16.3548 12.1907 16.3548 12.9791C16.3548 13.1136 16.3432 13.262 16.32 13.4243C16.1345 14.4586 15.6475 15.3559 14.8591 16.1165C14.1913 16.7194 13.3913 17.0209 12.4591 17.0209C11.513 17.0209 10.8267 16.7217 10.4 16.1235C10.0754 16.9675 9.74609 17.7165 9.41217 18.3704C9.0829 19.0243 8.80232 19.4441 8.57043 19.6296C8.41739 19.7548 8.21797 19.8174 7.97217 19.8174ZM10.0522 11.6991C9.5513 11.6991 9.18493 11.451 8.95304 10.9548C8.86493 10.76 8.82087 10.5583 8.82087 10.3496C8.82087 10.2197 8.8371 10.0852 8.86957 9.94609C8.98087 9.59826 9.19652 9.34319 9.51652 9.18087C9.72058 9.0742 9.92696 9.02087 10.1357 9.02087C10.2609 9.02087 10.4394 9.05565 10.6713 9.12522C10.9078 9.19014 11.1165 9.43826 11.2974 9.86957C11.367 10.0504 11.4017 10.2313 11.4017 10.4122C11.4017 10.5467 11.3716 10.7252 11.3113 10.9478C11.2557 11.1658 11.0655 11.3606 10.7409 11.5322C10.4951 11.6435 10.2655 11.6991 10.0522 11.6991ZM20.8052 15.7896C21.0371 15.4835 21.1786 15.0986 21.2296 14.6348C21.2852 14.171 21.262 13.7188 21.16 13.2783C21.0626 12.8377 20.9003 12.4991 20.673 12.2626C20.4504 12.0214 20.1745 11.9728 19.8452 12.1165C19.6226 12.2371 19.4533 12.4806 19.3374 12.847C19.2214 13.2133 19.1843 13.6145 19.2261 14.0504C19.2678 14.4864 19.4139 14.8713 19.6643 15.2052C19.9148 15.5391 20.2951 15.7339 20.8052 15.7896ZM20.3322 17C19.7664 17 19.2794 16.9119 18.8713 16.7357C18.4678 16.5548 18.1293 16.309 17.8557 15.9983C17.3409 15.3954 17.0719 14.7484 17.0487 14.0574C17.0255 13.3617 17.2087 12.738 17.5983 12.1861C17.9878 11.6296 18.5397 11.2539 19.2539 11.0591C19.9681 10.8643 20.8052 10.9617 21.7652 11.3513C22.5583 11.7177 23.0475 12.2603 23.233 12.9791C23.4232 13.698 23.4162 14.491 23.2122 15.3583C23.0081 16.2209 22.7136 17.0533 22.3287 17.8557C21.9438 18.6626 21.5728 19.3374 21.2157 19.88C20.8632 20.4226 20.6313 20.7287 20.52 20.7983C20.3067 20.84 20.1235 20.8586 19.9704 20.8539C19.8174 20.8539 19.6388 20.8377 19.4348 20.8052C19.4209 20.8006 19.4046 20.7959 19.3861 20.7913C19.3026 20.782 19.2145 20.7681 19.1217 20.7496C19.029 20.7357 18.9525 20.7194 18.8922 20.7009L18.4957 20.4852C18.6672 20.0771 18.8736 19.6991 19.1148 19.3513C19.2354 19.1612 19.3536 18.9687 19.4696 18.7739C19.5299 18.6672 19.5948 18.5559 19.6643 18.44C19.7988 18.2174 19.9264 17.9855 20.047 17.7443C20.1722 17.5032 20.2672 17.2551 20.3322 17ZM24.5826 16.833C24.5316 16.6522 24.5108 16.1652 24.52 15.3722C24.5293 14.5791 24.5548 13.6864 24.5965 12.6939C24.6429 11.7014 24.6963 10.818 24.7565 10.0435C24.8168 9.26899 24.8771 8.81217 24.9374 8.67304C25.3177 8.53391 25.6794 8.48522 26.0226 8.52696C26.3705 8.5687 26.6742 8.6429 26.9339 8.74957C26.9989 9.06493 27.0174 9.67942 26.9896 10.593C26.9664 11.5067 26.9223 12.4852 26.8574 13.5287C26.7971 14.5722 26.7438 15.4464 26.6974 16.1513C26.6742 16.4481 26.658 16.68 26.6487 16.847C26.2221 16.9722 25.8534 17.0232 25.5426 17C25.2365 16.9768 24.9281 16.9258 24.6174 16.847C24.6035 16.8423 24.5919 16.8377 24.5826 16.833ZM21.1879 7.37913C21.211 6.91536 21.3826 6.45391 21.7026 5.99478C22.0226 5.53565 22.3937 5.19942 22.8157 4.98609C23.4 4.72174 23.9171 4.62667 24.367 4.70087C24.8168 4.77043 25.218 4.93507 25.5705 5.19478C25.9229 5.45449 26.2476 5.73043 26.5444 6.02261C26.8644 6.35188 27.1728 6.60696 27.4696 6.78783C27.771 6.9687 28.0818 6.97333 28.4018 6.80174C28.6893 6.61623 28.9212 6.3542 29.0974 6.01565C29.2737 5.67246 29.4244 5.32 29.5496 4.95826C29.6331 4.73565 29.7165 4.52928 29.8 4.33913C30.2592 4.26493 30.6534 4.29739 30.9826 4.43652C31.3119 4.57565 31.5763 4.78667 31.7757 5.06956C31.7015 5.44522 31.5438 5.84638 31.3026 6.27304C31.0661 6.69971 30.8574 7.02203 30.6765 7.24C30.2406 7.75014 29.7467 8.06319 29.1948 8.17913C28.6429 8.29507 28.0934 8.25797 27.5461 8.06783C26.9989 7.87304 26.5119 7.56696 26.0852 7.14956C25.4313 6.49565 24.9328 6.10841 24.5896 5.98783C24.251 5.86725 23.9937 5.95304 23.8174 6.24522C23.6365 6.53739 23.4557 6.97565 23.2748 7.56C23.2516 7.6342 23.2261 7.70841 23.1983 7.78261C22.7855 7.89391 22.4052 7.90783 22.0574 7.82435C21.705 7.74087 21.4151 7.59246 21.1879 7.37913Z" fill="#E60023"/>
<path d="M42.6708 19.1721L39.1005 15.6018C38.3518 14.8531 37.9498 13.8206 38.005 12.7645L38.1942 8.82376C38.2651 7.24748 39.5183 5.99433 41.0867 5.91552L45.0274 5.72636C46.0835 5.67907 47.1159 6.07315 47.8647 6.82188L51.435 10.3922C52.9009 11.8581 52.9009 14.2383 51.435 15.7121L47.975 19.1721C46.517 20.6459 44.1368 20.6459 42.6708 19.1721ZM45.5712 11.0306C45.5712 9.77742 44.5545 8.76071 43.3013 8.76071C42.0482 8.76071 41.0315 9.77742 41.0315 11.0306C41.0315 12.2837 42.0482 13.3004 43.3013 13.3004C44.5545 13.3004 45.5712 12.2837 45.5712 11.0306Z" fill="#FFA5A8"/>
<path d="M46.9116 10.3934L50.4818 6.82309C51.2306 6.07435 52.2631 5.6724 53.3192 5.72757L57.2599 5.91672C58.8362 5.98765 60.0893 7.2408 60.1681 8.80921L60.3573 12.7499C60.4046 13.806 60.0105 14.8385 59.2618 15.5872L55.6915 19.1575C54.2255 20.6235 51.8453 20.6235 50.3715 19.1575L46.9116 15.6976C45.4377 14.2395 45.4377 11.8593 46.9116 10.3934ZM55.0531 13.2937C56.3062 13.2937 57.3229 12.277 57.3229 11.0239C57.3229 9.77074 56.3062 8.75404 55.0531 8.75404C53.7999 8.75404 52.7832 9.77074 52.7832 11.0239C52.7832 12.277 53.7999 13.2937 55.0531 13.2937Z" fill="#E60023"/>
</svg>
