<svg width="375" height="173" viewBox="0 0 375 173" fill="none" xmlns="http://www.w3.org/2000/svg">
<path opacity="0.02" d="M-2 103.5L16.7535 109.27C67.0201 124.737 120.761 124.838 171.085 109.559L187.75 104.5L214.958 97.3991C258.671 85.9908 304.579 85.9908 348.292 97.3991L375.5 104.5" stroke="#E60023" stroke-width="4"/>
<path opacity="0.01" d="M-3 143.5L17.0858 149.616C67.1471 164.861 120.61 164.883 170.684 149.681L187.75 144.5L214.958 137.399C258.671 125.991 304.579 125.991 348.292 137.399L375.5 144.5" stroke="#E60023" stroke-width="8"/>
<path opacity="0.03" d="M-1.5 64L17.1333 69.6657C67.1653 84.8786 120.588 84.89 170.627 69.6985L187.75 64.5L214.958 57.3991C258.671 45.9908 304.579 45.9908 348.292 57.3991L375.5 64.5" stroke="#E60023" stroke-width="6"/>
<path opacity="0.04" d="M-1.5 23.5L16.5854 29.0939C66.9557 44.6737 120.837 44.8144 171.288 29.4977L187.75 24.5L214.958 17.3991C258.671 5.99078 304.579 5.99077 348.292 17.3991L375.5 24.5" stroke="#E60023" stroke-width="8"/>
</svg>
